<svg width="80" height="80" viewBox="0 0 80 80" fill="none" xmlns="http://www.w3.org/2000/svg">
<rect width="80" height="80" fill="white"/>
<path d="M29.5 39.5H14C14 45.5 19 46.6667 21.5 46.5C25.5 47.3 28.5 42.1667 29.5 39.5Z" fill="#C4D600"/>
<path d="M66.5 40H51C51 46 56 47.1667 58.5 47C62.5 47.8 65.5 42.6667 66.5 40Z" fill="#C4D600"/>
<path d="M12.0019 39.0568C12.2738 43.8878 16.292 47.6727 21.1473 47.6727C26.0027 47.6727 30.021 43.8882 30.2929 39.0572C30.3014 38.9078 30.2812 38.7542 30.2269 38.6048L22.7835 18.1709H36.0461C36.41 19.2555 37.2645 20.1058 38.3541 20.4672V57.5977H32.4526C29.5465 57.5977 27.1821 59.9524 27.1821 62.8588C27.1821 63.4896 27.6946 64 28.3279 64H50.6721C51.3054 64 51.8179 63.4896 51.8179 62.8588V62.8466C51.8179 59.9524 49.4535 57.5977 46.5474 57.5977H40.6459V20.4672C41.7355 20.1058 42.59 19.2555 42.9539 18.1709H56.2165L48.7731 38.6048C48.7188 38.7542 48.6987 38.9074 48.7072 39.0568C48.9791 43.8878 52.9973 47.6727 57.8527 47.6727C62.708 47.6727 66.7263 43.8882 66.9982 39.0572C67.0067 38.9078 66.9865 38.7542 66.9322 38.6048L58.9302 16.6374C58.9273 16.6293 58.9212 16.6232 58.918 16.6152C58.9018 16.574 58.876 16.5402 58.8552 16.5015C58.8111 16.4183 58.7618 16.3409 58.7 16.2722C58.6696 16.2386 58.6376 16.21 58.6033 16.1802C58.5303 16.1161 58.4513 16.0636 58.3644 16.0198C58.3307 16.0029 58.3003 15.9842 58.2648 15.9706C58.1347 15.9201 57.998 15.8852 57.8527 15.8852C57.8452 15.8852 57.8385 15.8884 57.8311 15.8886H42.9561C42.5935 14.8007 41.7377 13.9476 40.6459 13.5855V11.1412C40.6459 10.5104 40.1334 10 39.5 10C38.8666 10 38.3541 10.5104 38.3541 11.1412V13.5856C37.2623 13.9477 36.4065 14.8008 36.044 15.8886H21.1689C21.1615 15.8884 21.1548 15.8852 21.1473 15.8852C21.002 15.8852 20.8652 15.9201 20.7351 15.9706C20.6997 15.9841 20.6694 16.0029 20.6358 16.0197C20.5488 16.0636 20.4697 16.116 20.3966 16.1803C20.3625 16.2101 20.3305 16.2385 20.3001 16.2721C20.2381 16.3409 20.1887 16.4185 20.1445 16.5019C20.1239 16.5405 20.0983 16.5739 20.0821 16.615C20.079 16.6231 20.0728 16.6292 20.0698 16.6374L12.0678 38.6048C12.0135 38.7542 11.9934 38.9074 12.0019 39.0568ZM49.3024 61.7177H29.6976C30.1452 60.64 31.2116 59.88 32.4526 59.88H46.5474C47.7884 59.88 48.8548 60.64 49.3024 61.7177ZM21.1473 45.3904C17.9213 45.3904 15.1887 43.1627 14.4658 40.1348H27.8289C27.106 43.1627 24.3734 45.3904 21.1473 45.3904ZM14.7803 37.8525L21.1473 20.373L27.5144 37.8525H14.7803ZM38.135 17.0253C38.1357 16.2797 38.7417 15.6754 39.4889 15.669C39.4929 15.6691 39.4961 15.6712 39.5 15.6712C39.5039 15.6712 39.5071 15.6691 39.511 15.669C40.2583 15.6754 40.8643 16.2797 40.865 17.0253L40.8641 17.0297L40.8643 17.0308C40.8617 17.7785 40.2515 18.386 39.5 18.386C38.7485 18.386 38.1383 17.7785 38.1357 17.0308L38.1359 17.0297L38.135 17.0253ZM64.2197 37.8525H51.4856L57.8527 20.373L64.2197 37.8525ZM57.8527 45.3904C54.6266 45.3904 51.894 43.1627 51.1711 40.1348H64.5342C63.8113 43.1627 61.0787 45.3904 57.8527 45.3904Z" fill="#20A6FF"/>
<path d="M41 73C53.7033 73 64 72.1304 64 71C64 69.8696 53.7164 69 41 69C28.2836 69 18 69.8696 18 71C18 72.1304 28.2967 73 41 73Z" fill="#F7F7F7"/>
</svg>
