<svg width="80" height="80" viewBox="0 0 80 80" fill="none" xmlns="http://www.w3.org/2000/svg">
<rect width="80" height="80" fill="white"/>
<rect width="80" height="80" fill="white"/>
<path d="M37.0622 66.5C35.756 66.5 34.4591 66.2115 33.2656 65.6441L18.3563 58.5039C17.1111 57.9076 16.3076 56.6094 16.3076 55.2006V43.2232C16.3076 42.199 16.7305 41.2181 17.4682 40.5305C18.2106 39.8381 19.2068 39.4967 20.2264 39.5929C23.7129 39.9247 27.1807 41.3046 31.1183 43.93H40.1635C45.0549 43.93 48.5273 47.1611 49.2697 52.1617C52.1407 50.9933 57.6853 48.8104 60.1616 48.3824C63.3755 47.8343 65.4571 49.2383 66.7493 50.349C67.7172 51.1857 68.1683 52.4502 67.9428 53.7388C67.7172 55.0467 66.8526 56.0997 65.631 56.5469L40.0836 65.9615C39.1109 66.3221 38.0866 66.5 37.0622 66.5ZM19.8928 42.4346C19.625 42.4346 19.4464 42.5644 19.3572 42.6462C19.2632 42.7327 19.1081 42.9202 19.1081 43.2232V55.2006C19.1081 55.5035 19.282 55.7824 19.5498 55.9122L34.4591 63.0525C35.9204 63.7497 37.6261 63.8314 39.1391 63.2737L64.6865 53.8591C65.0718 53.7148 65.1705 53.3782 65.194 53.2388C65.2222 53.0801 65.2269 52.7772 64.9543 52.5416C63.9582 51.6809 62.6707 50.8539 60.6361 51.2049C58.1223 51.6424 51.1211 54.4649 48.5931 55.5371C48.4991 55.5804 48.4004 55.6093 48.3018 55.6333C48.2031 55.6525 48.1091 55.6574 48.0011 55.6622H30.7095C29.9389 55.6622 29.3139 55.0227 29.3139 54.2341C29.3139 53.4455 29.9389 52.806 30.7095 52.806H46.535C46.1121 49.7864 44.289 46.8005 40.1728 46.8005H30.7095C30.4322 46.8005 30.1644 46.7188 29.9341 46.5601C25.0991 43.2616 21.9368 42.6365 19.9774 42.449C19.9445 42.4346 19.9163 42.4346 19.8928 42.4346Z" fill="#00A8FF" stroke="white" stroke-width="0.5"/>
<rect x="13" y="39.5" width="5.53846" height="18.4615" rx="1" fill="#EEF0FD" stroke="#00A8FF" stroke-width="2"/>
<path d="M37.592 22.548C38.852 22.548 39.764 21.624 39.764 20.412C39.764 19.212 38.804 18.336 37.604 18.336C36.392 18.336 35.432 19.236 35.432 20.436C35.432 21.636 36.308 22.548 37.592 22.548ZM36.584 27H37.664L43.364 18.42H42.284L36.584 27ZM37.604 21.468C37.088 21.468 36.764 21.108 36.764 20.424C36.764 19.764 37.088 19.392 37.604 19.392C38.12 19.392 38.42 19.788 38.42 20.424C38.42 21.096 38.12 21.468 37.604 21.468ZM42.332 27.132C43.58 27.132 44.492 26.208 44.492 24.984C44.492 23.784 43.544 22.908 42.332 22.908C41.132 22.908 40.172 23.82 40.172 25.02C40.172 26.22 41.048 27.132 42.332 27.132ZM42.332 26.04C41.816 26.04 41.504 25.68 41.504 25.008C41.504 24.336 41.816 23.976 42.332 23.976C42.86 23.976 43.16 24.372 43.16 24.996C43.16 25.668 42.86 26.04 42.332 26.04Z" fill="#C4D600"/>
<path d="M40 36C47.168 36 53 30.168 53 23C53 15.832 47.168 10 40 10C32.832 10 27 15.832 27 23C27 30.168 32.832 36 40 36ZM40 12C46.065 12 51 16.935 51 23C51 29.065 46.065 34 40 34C33.935 34 29 29.065 29 23C29 16.935 33.935 12 40 12Z" fill="#20A6FF"/>
<path d="M64 28C67.86 28 71 24.86 71 21C71 17.14 67.86 14 64 14C60.14 14 57 17.14 57 21C57 24.86 60.14 28 64 28ZM64 16C66.757 16 69 18.243 69 21C69 23.757 66.757 26 64 26C61.243 26 59 23.757 59 21C59 18.243 61.243 16 64 16Z" fill="#20A6FF"/>
<path d="M63 24H65V22H67V20H65V18H63V20H61V22H63V24Z" fill="#20A6FF"/>
<path d="M16 28C19.86 28 23 24.86 23 21C23 17.14 19.86 14 16 14C12.14 14 9 17.14 9 21C9 24.86 12.14 28 16 28ZM16 16C18.757 16 21 18.243 21 21C21 23.757 18.757 26 16 26C13.243 26 11 23.757 11 21C11 18.243 13.243 16 16 16Z" fill="#20A6FF"/>
<path d="M15 24H17V22H19V20H17V18H15V20H13V22H15V24Z" fill="#20A6FF"/>
<path d="M40 74C52.7033 74 63 73.1304 63 72C63 70.8696 52.7164 70 40 70C27.2836 70 17 70.8696 17 72C17 73.1304 27.2967 74 40 74Z" fill="#F7F7F7"/>
</svg>
