<svg width="80" height="80" viewBox="0 0 80 80" fill="none" xmlns="http://www.w3.org/2000/svg">
<rect width="80" height="80" fill="white"/>
<path d="M40 74C52.7033 74 63 73.1304 63 72C63 70.8696 52.7164 70 40 70C27.2836 70 17 70.8696 17 72C17 73.1304 27.2967 74 40 74Z" fill="#F7F7F7"/>
<path d="M39.5 16C41.9814 16 44 13.9812 44 11.4998C44 9.01846 41.9814 7 39.5 7C37.0186 7 35 9.01846 35 11.4998C35 13.9812 37.0186 16 39.5 16ZM39.5 8.4203C41.2018 8.4203 42.5864 9.80177 42.5864 11.4998C42.5864 13.1982 41.2018 14.5797 39.5 14.5797C37.7982 14.5797 36.4136 13.1982 36.4136 11.4998C36.4136 9.80177 37.7982 8.4203 39.5 8.4203Z" fill="#20A6FF" stroke="#20A6FF" stroke-width="0.2"/>
<path d="M55.9923 15C55.9883 15 55.9846 15 55.9806 15C54.9157 15 53.9161 15.4136 53.1648 16.1651C52.4105 16.9191 51.9969 17.9234 52 18.9923C52.0028 20.06 52.4213 21.0649 53.1784 21.8216C53.9351 22.5787 54.94 22.9972 56.0077 23C56.0114 23 56.0154 23 56.0191 23C57.0839 23 58.0836 22.5867 58.8349 21.8352C59.5892 21.0812 60.0031 20.0769 60 19.0077C59.9969 17.94 59.5784 16.9351 58.8216 16.1784C58.0649 15.4216 57.06 15.0031 55.9923 15ZM57.9443 20.9446C57.4308 21.4582 56.7472 21.7405 56.0191 21.7405C56.0163 21.7405 56.0138 21.7405 56.0111 21.7405C55.2786 21.7386 54.5889 21.4511 54.0689 20.9311C53.5489 20.4111 53.2614 19.7214 53.2595 18.9889C53.2574 18.2577 53.54 17.571 54.0554 17.0557C54.5689 16.5421 55.2525 16.2595 55.9809 16.2595C55.9834 16.2595 55.9862 16.2595 55.9886 16.2595C56.7214 16.2617 57.4111 16.5492 57.9311 17.0689C58.4508 17.5889 58.7383 18.2786 58.7405 19.0114C58.7426 19.7426 58.4597 20.4293 57.9443 20.9446Z" fill="#20A6FF" stroke="#20A6FF" stroke-width="0.2"/>
<path d="M63.5002 31C61.0188 31 59 33.0186 59 35.5C59 37.9814 61.0188 40 63.5002 40C65.9815 40 68 37.9814 68 35.5C68 33.0186 65.9815 31 63.5002 31ZM63.5002 38.5864C61.8018 38.5864 60.4203 37.2018 60.4203 35.5C60.4203 33.7982 61.8018 32.4136 63.5002 32.4136C65.1982 32.4136 66.5797 33.7982 66.5797 35.5C66.5797 37.2018 65.1982 38.5864 63.5002 38.5864Z" fill="#20A6FF" stroke="#20A6FF" stroke-width="0.2"/>
<path d="M53.1648 54.8349C53.9161 55.5864 54.9157 56 55.9806 56C55.9846 56 55.9883 56 55.9923 56C57.06 55.9969 58.0649 55.5784 58.8216 54.8216C59.5784 54.0649 59.9969 53.06 60 51.9923C60.0031 50.9231 59.5892 49.9188 58.8349 49.1648C58.0809 48.4108 57.0701 48.024 56.0077 48C54.94 48.0028 53.9351 48.4213 53.1784 49.1784C52.4213 49.9351 52.0028 50.94 52 52.0077C51.9969 53.0766 52.4105 54.0809 53.1648 54.8349ZM54.0689 50.0689C54.5889 49.5489 55.2786 49.2614 56.0111 49.2595C56.0138 49.2595 56.0163 49.2595 56.0191 49.2595C56.7472 49.2595 57.4308 49.5418 57.9443 50.0554C58.4597 50.5707 58.7426 51.2574 58.7405 51.9886C58.7383 52.7214 58.4508 53.4111 57.9311 53.9311C57.4111 54.4508 56.7214 54.7383 55.9886 54.7405C55.9862 54.7405 55.9834 54.7405 55.9809 54.7405C55.2525 54.7405 54.5689 54.4579 54.0554 53.9443C53.54 53.429 53.2574 52.7423 53.2595 52.0111C53.2614 51.2786 53.5489 50.5889 54.0689 50.0689Z" fill="#20A6FF" stroke="#20A6FF" stroke-width="0.2"/>
<path d="M44 59.5002C44 57.0188 41.9814 55 39.5 55C37.0186 55 35 57.0188 35 59.5002C35 61.9815 37.0186 64 39.5 64C41.9814 64 44 61.9815 44 59.5002ZM36.4136 59.5002C36.4136 57.8018 37.7982 56.4203 39.5 56.4203C41.2018 56.4203 42.5864 57.8018 42.5864 59.5002C42.5864 61.1982 41.2018 62.5797 39.5 62.5797C37.7982 62.5797 36.4136 61.1982 36.4136 59.5002Z" fill="#20A6FF" stroke="#20A6FF" stroke-width="0.2"/>
<path d="M20.1784 54.8216C20.9351 55.5784 21.94 55.9969 23.0077 56C23.0117 56 23.0154 56 23.0194 56C24.0843 56 25.0839 55.5864 25.8352 54.8349C26.5895 54.0809 27.0031 53.0766 27 52.0077C26.9972 50.94 26.5787 49.9351 25.8216 49.1784C25.0649 48.4213 24.06 48.0028 22.9923 48C22.9886 48 22.9846 48 22.9809 48C21.9161 48 20.9164 48.4133 20.1651 49.1648C19.4108 49.9188 18.9969 50.9231 19 51.9923C19.0031 53.06 19.4216 54.0649 20.1784 54.8216ZM21.0557 50.0554C21.5692 49.5418 22.2528 49.2595 22.9809 49.2595C22.9837 49.2595 22.9862 49.2595 22.9889 49.2595C23.7214 49.2614 24.4111 49.5489 24.9311 50.0689C25.4511 50.5889 25.7386 51.2786 25.7405 52.0111C25.7426 52.7423 25.46 53.429 24.9446 53.9443C24.4311 54.4579 23.7475 54.7405 23.0191 54.7405C23.0166 54.7405 23.0138 54.7405 23.0114 54.7405C22.2786 54.7383 21.5889 54.4508 21.0689 53.9311C20.5492 53.4111 20.2617 52.7214 20.2595 51.9886C20.2574 51.2574 20.5403 50.5707 21.0557 50.0554Z" fill="#20A6FF" stroke="#20A6FF" stroke-width="0.2"/>
<path d="M11 35.5C11 37.9814 13.0185 40 15.4998 40C17.9812 40 20 37.9814 20 35.5C20 33.0186 17.9812 31 15.4998 31C13.0185 31 11 33.0186 11 35.5ZM18.5797 35.5C18.5797 37.2018 17.1982 38.5864 15.4998 38.5864C13.8018 38.5864 12.4203 37.2018 12.4203 35.5C12.4203 33.7982 13.8018 32.4136 15.4998 32.4136C17.1982 32.4136 18.5797 33.7982 18.5797 35.5Z" fill="#20A6FF" stroke="#20A6FF" stroke-width="0.2"/>
<path d="M23.0194 15C23.0154 15 23.0117 15 23.0077 15C21.94 15.0031 20.9351 15.4216 20.1784 16.1784C19.4216 16.9351 19.0031 17.94 19 19.0077C18.9969 20.0769 19.4108 21.0812 20.1651 21.8352C20.9167 22.5867 21.9161 23 22.9809 23C22.9846 23 22.9886 23 22.9923 23C24.06 22.9972 25.0649 22.5787 25.8216 21.8216C26.5787 21.0649 26.9972 20.06 27 18.9923C27.0031 17.9234 26.5895 16.9191 25.8352 16.1651C25.0839 15.4136 24.0843 15 23.0194 15ZM24.9311 20.9311C24.4111 21.4511 23.7214 21.7386 22.9889 21.7405C22.9862 21.7405 22.9837 21.7405 22.9809 21.7405C22.2528 21.7405 21.5692 21.4582 21.0557 20.9446C20.5403 20.4293 20.2574 19.7426 20.2595 19.0114C20.2617 18.2786 20.5492 17.5889 21.0689 17.0689C21.5889 16.5492 22.2786 16.2617 23.0114 16.2595C23.0138 16.2595 23.0166 16.2595 23.0191 16.2595C23.7475 16.2595 24.4311 16.5421 24.9446 17.0557C25.46 17.571 25.7426 18.2577 25.7405 18.9889C25.7386 19.7214 25.4511 20.4111 24.9311 20.9311Z" fill="#20A6FF" stroke="#20A6FF" stroke-width="0.2"/>
<path d="M32.9726 12.0261C31.0412 12.4709 29.17 13.0819 27.41 13.8419C27.0244 14.0082 26.8862 14.3847 27.1017 14.683C27.248 14.8859 27.52 15 27.8002 15C27.9321 15 28.0656 14.9749 28.1889 14.9215C29.8467 14.2057 31.6098 13.6305 33.4284 13.2115C33.8514 13.1139 34.0926 12.7698 33.9665 12.4425C33.8405 12.1146 33.3937 11.928 32.9726 12.0261Z" fill="#C4D600" stroke="#C4D600" stroke-width="0.2"/>
<path d="M50.8251 14.924C50.9455 14.9757 51.0754 15 51.2032 15C51.4862 15 51.7602 14.8807 51.904 14.6699C52.1131 14.3639 51.9693 13.9815 51.583 13.816C49.82 13.0609 47.9462 12.458 46.0134 12.0237C45.5905 11.9298 45.1506 12.1233 45.0305 12.4577C44.9104 12.7924 45.156 13.1406 45.5789 13.2356C47.3994 13.6447 49.1647 14.2129 50.8251 14.924Z" fill="#C4D600" stroke="#C4D600" stroke-width="0.2"/>
<path d="M60.3172 23.1017C60.0189 23.3168 59.912 23.8034 60.0787 24.1889C60.7945 25.8467 61.3697 27.6098 61.7888 29.4283C61.8688 29.7756 62.1148 30 62.3811 30C62.4397 30 62.4989 29.9891 62.5578 29.9664C62.885 29.8404 63.0716 29.3955 62.9741 28.9725C62.5294 27.0412 61.9183 25.17 61.1583 23.41C60.992 23.0241 60.6155 22.8863 60.3172 23.1017Z" fill="#C4D600" stroke="#C4D600" stroke-width="0.2"/>
<path d="M60.6293 47C60.8532 47 61.07 46.8707 61.1838 46.6425C61.9388 45.131 62.5419 43.5249 62.9759 41.8684C63.0709 41.506 62.8765 41.1288 62.5419 41.0259C62.2079 40.9236 61.8595 41.1335 61.7641 41.496C61.3551 43.0561 60.787 44.5693 60.076 45.9929C59.9105 46.3244 60.0243 46.7385 60.33 46.9177C60.4254 46.9737 60.5281 47 60.6293 47Z" fill="#C4D600" stroke="#C4D600" stroke-width="0.2"/>
<path d="M50.8111 55.105C49.1533 56.0594 47.3902 56.8262 45.5716 57.385C45.1486 57.515 44.9074 57.9739 45.0335 58.4103C45.1369 58.7685 45.4549 59 45.7991 59C45.8748 59 45.9513 58.9887 46.0274 58.9654C47.9588 58.3724 49.83 57.5577 51.59 56.5445C51.9756 56.3227 52.1138 55.8207 51.8983 55.423C51.6829 55.0248 51.1963 54.8827 50.8111 55.105Z" fill="#C4D600" stroke="#C4D600" stroke-width="0.2"/>
<path d="M33.2043 59C33.5513 59 33.87 58.8189 33.9695 58.5418C34.0896 58.2073 33.844 57.8592 33.4211 57.7641C31.601 57.3552 29.8357 56.7872 28.1749 56.0762C27.7882 55.9102 27.3047 56.0246 27.096 56.3302C26.8869 56.6362 27.0307 57.0184 27.417 57.1839C29.1804 57.9388 31.0542 58.5418 32.9866 58.9757C33.0593 58.992 33.1323 59 33.2043 59Z" fill="#C4D600" stroke="#C4D600" stroke-width="0.2"/>
<path d="M17.2112 41.5718C17.1134 41.148 16.768 40.9072 16.4422 41.0337C16.115 41.1597 15.9284 41.6046 16.0259 42.0276C16.4706 43.959 17.0817 45.8302 17.8417 47.5902C17.9549 47.8525 18.1653 48 18.3821 48C18.4842 48 18.5874 47.9676 18.6828 47.8985C18.9811 47.6835 19.088 47.1969 18.9213 46.8113C18.2055 45.1535 17.6303 43.3904 17.2112 41.5718Z" fill="#C4D600" stroke="#C4D600" stroke-width="0.2"/>
<path d="M17.8162 23.4172C17.0612 25.1805 16.4581 27.0541 16.0241 28.9864C15.9291 29.4093 16.1235 29.8492 16.4581 29.9693C16.5156 29.9899 16.5734 30 16.6303 30C16.9049 30 17.1571 29.7711 17.2359 29.4209C17.6449 27.6009 18.213 25.8357 18.924 24.175C19.0895 23.7883 18.9757 23.3053 18.67 23.0962C18.364 22.8867 17.982 23.0309 17.8162 23.4172Z" fill="#C4D600" stroke="#C4D600" stroke-width="0.2"/>
<path d="M35.7898 30.4727C34.705 31.1436 33.9135 32.1909 33.571 33.4233C33.2265 33.3569 32.8712 33.3202 32.5072 33.3202C29.4705 33.3202 27 35.7414 27 38.7175C27 40.4311 27.849 42.0285 29.2111 43.0335C28.03 43.8332 27.2824 45.166 27.2824 46.6334V48.2879C27.2824 48.6811 27.6078 49 28.0091 49H50.9909C51.3922 49 51.7176 48.6811 51.7176 48.2879V46.6334C51.7176 45.166 50.97 43.8332 49.7889 43.0335C51.151 42.0285 52 40.4311 52 38.7175C52 35.7414 49.5295 33.3202 46.4928 33.3202C46.1167 33.3202 45.7494 33.3578 45.3944 33.4285C45.0498 32.2088 44.2506 31.1527 43.1711 30.4772C44.8614 29.312 45.9237 27.3843 45.9237 25.3115C45.9237 21.8311 43.0345 19 39.4837 19C35.9328 19 33.0437 21.8311 33.0437 25.3115C33.0437 27.3818 34.1031 29.3072 35.7898 30.4727ZM36.2788 47.5757H28.7357V46.6334C28.7357 45.2929 29.661 44.119 30.9855 43.779C31.291 43.7007 31.5095 43.4379 31.5269 43.1291C31.5443 42.82 31.3559 42.5355 31.0611 42.4249C29.5013 41.8401 28.4533 40.3501 28.4533 38.7175C28.4533 36.5269 30.272 34.7445 32.5072 34.7445C34.7425 34.7445 36.5612 36.5269 36.5612 38.7175C36.5612 40.3501 35.5131 41.8401 33.9534 42.4249C33.6586 42.5355 33.4702 42.82 33.4875 43.1291C33.5049 43.4379 33.7235 43.7007 34.029 43.779C35.3534 44.119 36.2788 45.2929 36.2788 46.6334V47.5757ZM50.5467 38.7175C50.5467 40.3501 49.4987 41.8401 47.9389 42.4249C47.6441 42.5355 47.4557 42.82 47.4731 43.1291C47.4905 43.4379 47.709 43.7007 48.0145 43.779C49.339 44.119 50.2643 45.2929 50.2643 46.6334V47.5757H42.7212V46.6334C42.7212 45.2929 43.6466 44.119 44.971 43.779C45.2765 43.7007 45.4951 43.4379 45.5125 43.1291C45.5298 42.82 45.3414 42.5355 45.0466 42.4249C43.4869 41.8401 42.4388 40.3501 42.4388 38.7175C42.4388 36.5269 44.2575 34.7445 46.4928 34.7445C48.728 34.7445 50.5467 36.5269 50.5467 38.7175ZM39.4837 20.4243C42.2334 20.4243 44.4704 22.6166 44.4704 25.3115C44.4704 27.3199 43.1814 29.1528 41.2627 29.8722C40.9678 29.9828 40.7794 30.2672 40.7968 30.5763C40.8142 30.8851 41.0327 31.148 41.3382 31.2262C42.6683 31.5676 43.6957 32.6161 44.0196 33.9018C42.2231 34.7917 40.9856 36.6136 40.9856 38.7175C40.9856 40.4311 41.8346 42.0285 43.1967 43.0335C42.0155 43.8332 41.268 45.166 41.268 46.6334V47.5757H37.732V46.6334C37.732 45.166 36.9845 43.8332 35.8033 43.0335C37.1654 42.0285 38.0144 40.4311 38.0144 38.7175C38.0144 36.6026 36.7638 34.773 34.9519 33.8883C35.2798 32.6098 36.3067 31.5658 37.6291 31.2262C37.9346 31.148 38.1532 30.8851 38.1706 30.5763C38.1879 30.2672 37.9995 29.9828 37.7047 29.8722C35.7859 29.1528 34.4969 27.3199 34.4969 25.3115C34.4969 22.6166 36.734 20.4243 39.4837 20.4243Z" fill="#20A6FF" stroke="#20A6FF" stroke-width="0.2"/>
<path d="M46.5002 41C47.3664 41 48.1977 40.6958 48.7811 40.1653C49.0953 39.8795 49.068 39.4383 48.7201 39.1797C48.3714 38.9214 47.8357 38.9446 47.5206 39.2297C46.9899 39.7132 46.0101 39.7132 45.4794 39.2297C45.1647 38.9446 44.6278 38.9214 44.2799 39.1797C43.932 39.4383 43.9047 39.8795 44.2189 40.1653C44.8023 40.6958 45.6336 41 46.5002 41Z" fill="#20A6FF" stroke="#20A6FF" stroke-width="0.2"/>
<path d="M39.5 29C40.3665 29 41.1978 28.6958 41.7811 28.1653C42.0953 27.8795 42.068 27.4383 41.7201 27.1797C41.3719 26.9214 40.8358 26.9446 40.5207 27.2297C39.99 27.7129 39.01 27.7129 38.4793 27.2297C38.165 26.9446 37.6285 26.9214 37.2799 27.1797C36.932 27.4383 36.9047 27.8795 37.2189 28.1653C37.8022 28.6958 38.6335 29 39.5 29Z" fill="#20A6FF" stroke="#20A6FF" stroke-width="0.2"/>
<path d="M34.7201 39.1797C34.3715 38.9214 33.835 38.9446 33.5207 39.2297C32.99 39.7129 32.01 39.7129 31.4793 39.2297C31.1646 38.9446 30.6281 38.9214 30.2799 39.1797C29.932 39.4383 29.9047 39.8795 30.2189 40.1653C30.8022 40.6958 31.6335 41 32.5 41C33.3665 41 34.1978 40.6958 34.7811 40.1653C35.0953 39.8795 35.068 39.4383 34.7201 39.1797Z" fill="#20A6FF" stroke="#20A6FF" stroke-width="0.2"/>
</svg>
