<svg width="80" height="80" viewBox="0 0 80 80" fill="none" xmlns="http://www.w3.org/2000/svg">
<rect width="80" height="80" fill="white"/>
<path d="M54.5 43L30.5 58C32.5 66.5 38.5 63 38.5 63C47 61 52.5 58 52.5 58L54.5 43Z" fill="#EEF0FD"/>
<path fill-rule="evenodd" clip-rule="evenodd" d="M55.7498 48.6875C55.7498 40.2307 48.8942 33.3751 40.4374 33.3751C31.9806 33.3751 25.125 40.2307 25.125 48.6875C25.125 57.1443 31.9806 63.9999 40.4374 63.9999C48.8942 63.9999 55.7498 57.1443 55.7498 48.6875ZM27.1667 48.6875C27.1667 41.3583 33.1082 35.4167 40.4374 35.4167C47.7667 35.4167 53.7082 41.3583 53.7082 48.6875C53.7082 56.0168 47.7667 61.9583 40.4374 61.9583C33.1082 61.9583 27.1667 56.0168 27.1667 48.6875Z" fill="#20A6FF"/>
<path fill-rule="evenodd" clip-rule="evenodd" d="M46.5623 15.0003C45.9985 15.0003 45.5415 15.4574 45.5415 16.0211C45.5415 16.5849 45.9985 17.042 46.5623 17.042H60.8539C61.4177 17.042 61.8748 16.5849 61.8748 16.0211C61.8748 15.4574 61.4177 15.0003 60.8539 15.0003H46.5623Z" fill="#20A6FF"/>
<path fill-rule="evenodd" clip-rule="evenodd" d="M34.3124 17.0425C34.8762 17.0425 35.3333 16.5855 35.3333 16.0217C35.3333 15.4579 34.8762 15.0009 34.3124 15.0009H20.0208C19.457 15.0009 19 15.4579 19 16.0217C19 16.5855 19.457 17.0425 20.0208 17.0425H34.3124Z" fill="#20A6FF"/>
<path fill-rule="evenodd" clip-rule="evenodd" d="M61.7233 16.556C62.0188 16.0758 61.8691 15.4471 61.3889 15.1516C60.9088 14.8561 60.28 15.0058 59.9845 15.486L47.2856 36.1217C46.9901 36.6019 47.1398 37.2307 47.62 37.5262C48.1001 37.8216 48.7289 37.6719 49.0244 37.1918L61.7233 16.556ZM33.5778 35.173C33.2824 35.6532 33.4321 36.2819 33.9122 36.5774C34.3924 36.8729 35.0212 36.7232 35.3166 36.243L47.4317 16.556C47.7272 16.0758 47.5775 15.4471 47.0974 15.1516C46.6172 14.8561 45.9884 15.0058 45.6929 15.486L33.5778 35.173Z" fill="#20A6FF"/>
<path fill-rule="evenodd" clip-rule="evenodd" d="M20.8904 15.4868C20.5949 15.0066 19.9661 14.8569 19.486 15.1524C19.0058 15.4478 18.8561 16.0766 19.1516 16.5568L31.8505 37.1926C32.146 37.6727 32.7748 37.8224 33.2549 37.527C33.7351 37.2315 33.8848 36.6027 33.5893 36.1225L20.8904 15.4868ZM39.5681 26.5099C39.8636 26.99 40.4924 27.1397 40.9725 26.8442C41.4527 26.5488 41.6024 25.92 41.3069 25.4398L35.182 15.4868C34.8865 15.0066 34.2577 14.8569 33.7776 15.1524C33.2974 15.4478 33.1477 16.0766 33.4432 16.5568L39.5681 26.5099Z" fill="#20A6FF"/>
<path fill-rule="evenodd" clip-rule="evenodd" d="M34.354 45.7486C33.9503 45.355 33.304 45.3633 32.9104 45.767C32.5169 46.1707 32.5252 46.817 32.9289 47.2106L36.3269 50.5228C36.7306 50.9163 37.3769 50.9081 37.7705 50.5044C38.164 50.1006 38.1557 49.4543 37.752 49.0608L34.354 45.7486Z" fill="#C4D600"/>
<path fill-rule="evenodd" clip-rule="evenodd" d="M38.4841 46.8072C39.042 46.7261 39.4286 46.2081 39.3475 45.6502C39.2664 45.0923 38.7484 44.7057 38.1905 44.7868L33.4945 45.4691C32.9366 45.5502 32.55 46.0682 32.6311 46.6261C32.7122 47.1841 33.2302 47.5706 33.7881 47.4896L38.4841 46.8072Z" fill="#C4D600"/>
<path fill-rule="evenodd" clip-rule="evenodd" d="M38.0456 49.9642C38.1409 49.4085 37.7677 48.8808 37.212 48.7855C36.6564 48.6902 36.1286 49.0634 36.0333 49.6191L35.2312 54.2961C35.1359 54.8517 35.5091 55.3795 36.0647 55.4748C36.6204 55.5701 37.1481 55.1969 37.2434 54.6412L38.0456 49.9642Z" fill="#C4D600"/>
<path fill-rule="evenodd" clip-rule="evenodd" d="M35.7621 53.5652C35.263 53.8275 35.0712 54.4447 35.3335 54.9438C35.5959 55.4428 36.2131 55.6346 36.7121 55.3723L40.9123 53.1641C41.4114 52.9018 41.6032 52.2845 41.3409 51.7855C41.0785 51.2865 40.4613 51.0946 39.9623 51.357L35.7621 53.5652Z" fill="#C4D600"/>
<path fill-rule="evenodd" clip-rule="evenodd" d="M43.6315 54.6412C43.7268 55.1969 44.2545 55.5701 44.8102 55.4748C45.3659 55.3795 45.7391 54.8517 45.6437 54.2961L44.8416 49.6191C44.7463 49.0634 44.2186 48.6902 43.6629 48.7855C43.1072 48.8808 42.734 49.4085 42.8293 49.9642L43.6315 54.6412Z" fill="#C4D600"/>
<path fill-rule="evenodd" clip-rule="evenodd" d="M40.9123 51.357C40.4133 51.0946 39.7961 51.2865 39.5337 51.7855C39.2714 52.2845 39.4632 52.9018 39.9623 53.1641L44.1625 55.3723C44.6615 55.6346 45.2787 55.4428 45.5411 54.9438C45.8034 54.4447 45.6115 53.8275 45.1125 53.5652L40.9123 51.357Z" fill="#C4D600"/>
<path fill-rule="evenodd" clip-rule="evenodd" d="M47.0867 47.4896C47.6447 47.5706 48.1627 47.1841 48.2437 46.6261C48.3248 46.0682 47.9382 45.5502 47.3803 45.4691L42.6844 44.7868C42.1264 44.7057 41.6084 45.0923 41.5273 45.6502C41.4463 46.2081 41.8328 46.7261 42.3908 46.8072L47.0867 47.4896Z" fill="#C4D600"/>
<path fill-rule="evenodd" clip-rule="evenodd" d="M43.123 49.0608C42.7193 49.4543 42.711 50.1006 43.1045 50.5044C43.4981 50.9081 44.1444 50.9163 44.5481 50.5228L47.9461 47.2106C48.3498 46.817 48.3581 46.1707 47.9646 45.767C47.571 45.3633 46.9247 45.355 46.521 45.7486L43.123 49.0608Z" fill="#C4D600"/>
<path fill-rule="evenodd" clip-rule="evenodd" d="M41.622 46.2489C41.8715 46.7545 42.4836 46.9621 42.9892 46.7125C43.4948 46.463 43.7023 45.8509 43.4528 45.3453L41.3527 41.0901C41.1032 40.5845 40.4911 40.3769 39.9855 40.6265C39.48 40.876 39.2724 41.4881 39.5219 41.9937L41.622 46.2489Z" fill="#C4D600"/>
<path fill-rule="evenodd" clip-rule="evenodd" d="M41.3527 41.9937C41.6022 41.4881 41.3947 40.876 40.8891 40.6265C40.3835 40.3769 39.7714 40.5845 39.5219 41.0901L37.4218 45.3453C37.1723 45.8509 37.3799 46.463 37.8854 46.7125C38.391 46.9621 39.0031 46.7545 39.2526 46.2489L41.3527 41.9937Z" fill="#C4D600"/>
<path d="M41 73C53.7033 73 64 72.1304 64 71C64 69.8696 53.7164 69 41 69C28.2836 69 18 69.8696 18 71C18 72.1304 28.2967 73 41 73Z" fill="#F7F7F7"/>
</svg>
