<svg width="80" height="80" viewBox="0 0 80 80" fill="none" xmlns="http://www.w3.org/2000/svg">
<rect width="80" height="80" fill="white"/>
<path d="M12 35.5V52C14.5 53 18 52 18 52V35.5H15H12Z" fill="#EEF0FD"/>
<path d="M68.789 48.725C68.6634 48.2002 68.4315 47.7068 68.1076 47.2753C67.7837 46.8437 67.3748 46.4832 66.906 46.216L66.448 45.952C67.1147 45.5664 67.6552 44.9957 68.004 44.309C68.4495 43.3669 68.5219 42.2911 68.2065 41.2978C67.8911 40.3045 67.2114 39.4675 66.304 38.955L53.022 31.29L57.601 32C58.2488 32.1012 58.9102 32.0737 59.5473 31.9191C60.1845 31.7645 60.7849 31.4858 61.3143 31.099C61.8437 30.7121 62.2916 30.2248 62.6325 29.6647C62.9734 29.1047 63.2006 28.4829 63.301 27.835C63.3982 27.2365 63.3102 26.6225 63.0489 26.0753C62.7877 25.5281 62.3655 25.0738 61.839 24.773C61.5191 24.5914 61.1687 24.4701 60.805 24.415L47.862 22.268C47.1722 22.1477 46.4646 22.1767 45.787 22.353L42.575 22.865C42.2825 22.1379 41.7149 21.5556 40.9954 21.2448C40.276 20.9339 39.4629 20.9196 38.733 21.205L26.433 25.821C25.7824 26.0635 25.1902 26.4404 24.695 26.927L19.352 31.275C19.326 31.297 19.301 31.319 19.276 31.344L19.16 31.46C18.3413 32.1842 17.6732 33.0626 17.194 34.045H13C12.4696 34.045 11.9609 34.2557 11.5858 34.6308C11.2107 35.0059 11 35.5146 11 36.045V51.01C11 51.5404 11.2107 52.0491 11.5858 52.4242C11.9609 52.7993 12.4696 53.01 13 53.01H17.267C18.183 54.857 21.223 57 23.31 57H45.652L49.863 59.428C50.5145 59.8045 51.2535 60.0035 52.006 60.005C52.5281 60.0108 53.0462 59.913 53.5303 59.7173C54.0143 59.5216 54.4548 59.2318 54.8261 58.8647C55.1975 58.4977 55.4923 58.0606 55.6937 57.5788C55.895 57.0971 55.9988 56.5801 55.999 56.058L58.043 57.238C58.9374 57.7783 60.0049 57.955 61.0257 57.7317C62.0465 57.5085 62.9428 56.9023 63.53 56.038C64.0112 55.3036 64.2349 54.4303 64.166 53.555C64.9406 53.6982 65.7401 53.613 66.4671 53.3099C67.1942 53.0069 67.8174 52.4989 68.261 51.848C68.5585 51.3915 68.7589 50.8787 68.8498 50.3414C68.9406 49.8041 68.9199 49.2539 68.789 48.725ZM65.304 40.687C65.7715 40.9385 66.1264 41.3578 66.2973 41.8604C66.4681 42.363 66.4423 42.9117 66.225 43.396C66.1021 43.6388 65.9307 43.8539 65.7214 44.0278C65.5121 44.2017 65.2693 44.3308 65.008 44.407C64.7497 44.4841 64.4782 44.5072 64.2106 44.4751C63.9429 44.4429 63.6847 44.3561 63.452 44.22L58.869 41.581C58.885 41.469 58.907 41.361 58.914 41.242C58.9263 40.8558 58.8829 40.4698 58.785 40.096C58.5842 39.2235 58.0919 38.4456 57.3894 37.8906C56.687 37.3355 55.8163 37.0366 54.921 37.043H54.394C54.7786 36.3761 54.9607 35.6117 54.918 34.843C54.918 34.823 54.911 34.805 54.909 34.786C54.909 34.749 54.909 34.713 54.901 34.677L65.304 40.687ZM46.152 24.319C46.1877 24.3135 46.2231 24.3061 46.258 24.297C46.6692 24.1846 47.1001 24.1645 47.52 24.238L60.493 26.39C60.624 26.4075 60.75 26.4514 60.8636 26.5189C60.9771 26.5864 61.0759 26.6763 61.1538 26.783C61.2317 26.8897 61.2872 27.011 61.317 27.1398C61.3468 27.2685 61.3502 27.4019 61.327 27.532C61.2691 27.9185 61.135 28.2897 60.9325 28.624C60.7299 28.9582 60.4629 29.2489 60.147 29.479C59.8287 29.7136 59.4669 29.8825 59.0827 29.9759C58.6984 30.0693 58.2995 30.0853 57.909 30.023L53.329 29.313C52.8674 29.2376 52.394 29.3283 51.9929 29.5688C51.5918 29.8094 51.2889 30.1843 51.138 30.627C51.0889 30.7679 51.0554 30.9138 51.038 31.062C50.951 31.055 50.863 31.053 50.775 31.052H50.752H35.423L39.752 29.384C40.0303 29.2709 40.298 29.1334 40.552 28.973C40.621 28.931 40.683 28.883 40.752 28.838C40.9304 28.7162 41.1005 28.5826 41.261 28.438C41.333 28.375 41.404 28.312 41.471 28.244C41.6433 28.0708 41.8027 27.8853 41.948 27.689C41.977 27.651 42.011 27.617 42.038 27.577C42.2011 27.3399 42.343 27.089 42.462 26.827C42.476 26.796 42.498 26.77 42.512 26.738C42.537 26.682 42.547 26.622 42.569 26.565C42.6431 26.3807 42.7059 26.192 42.757 26C42.786 25.893 42.815 25.787 42.837 25.678C42.8736 25.4797 42.898 25.2793 42.91 25.078C42.916 24.996 42.938 24.916 42.939 24.834L46.152 24.319ZM13 36.045H16.988V51.01H13V36.045ZM18.988 52.01V35.045C18.988 34.455 20.057 33.39 20.572 32.877L20.654 32.794L25.992 28.447C26.018 28.426 26.043 28.403 26.067 28.38C26.3683 28.0771 26.7316 27.843 27.132 27.694L39.432 23.078C39.5499 23.0296 39.6756 23.0031 39.803 23C40.0051 22.9998 40.2026 23.0608 40.3693 23.1751C40.536 23.2893 40.6642 23.4514 40.737 23.64C40.8011 23.8093 40.8499 23.984 40.883 24.162C40.883 24.162 40.883 24.171 40.883 24.175C40.909 24.3247 40.9237 24.4761 40.927 24.628C40.927 24.656 40.934 24.685 40.934 24.714C40.931 24.8254 40.922 24.9366 40.907 25.047C40.899 25.124 40.894 25.2 40.879 25.276C40.864 25.352 40.837 25.448 40.813 25.533C40.785 25.6327 40.7516 25.7309 40.713 25.827C40.685 25.897 40.653 25.966 40.619 26.034C40.5692 26.1374 40.5131 26.2375 40.451 26.334C40.413 26.394 40.375 26.454 40.332 26.512C40.2591 26.6076 40.1806 26.6987 40.097 26.785C40.054 26.83 40.014 26.878 39.968 26.92C39.854 27.0247 39.7319 27.1203 39.603 27.206C39.58 27.221 39.56 27.24 39.537 27.254C39.3733 27.3581 39.1998 27.4458 39.019 27.516L34.697 29.189C34.3727 29.3162 34.0871 29.5255 33.8682 29.7965C33.6493 30.0675 33.5047 30.3907 33.4485 30.7345C33.3923 31.0782 33.4265 31.4307 33.5478 31.7572C33.669 32.0838 33.8731 32.3732 34.14 32.597L34.158 32.609C34.2394 32.6759 34.326 32.7361 34.417 32.789C34.4916 32.8286 34.5684 32.8639 34.647 32.895C34.674 32.906 34.698 32.921 34.726 32.931C34.9505 33.0118 35.1874 33.0528 35.426 33.052H50.752C51.2835 33.0362 51.8011 33.2226 52.2005 33.5736C52.5999 33.9245 52.8513 34.4139 52.904 34.943C52.9192 35.2133 52.8787 35.4839 52.7852 35.7379C52.6916 35.992 52.5469 36.2241 52.36 36.42C52.2659 36.5185 52.1624 36.6076 52.051 36.686C51.718 36.9168 51.3221 37.0396 50.917 37.038H38.944C38.6788 37.038 38.4244 37.1434 38.2369 37.3309C38.0494 37.5184 37.944 37.7728 37.944 38.038C37.944 38.3032 38.0494 38.5576 38.2369 38.7451C38.4244 38.9326 38.6788 39.038 38.944 39.038H50.896C50.902 39.038 50.908 39.038 50.915 39.038H54.915C55.1842 39.0372 55.4507 39.0914 55.6981 39.1974C55.9456 39.3033 56.1688 39.4587 56.354 39.654C56.5451 39.8551 56.6929 40.0934 56.788 40.354C56.8767 40.6044 56.9158 40.8697 56.903 41.135C56.903 41.149 56.897 41.162 56.896 41.176C56.8742 41.3959 56.8164 41.6108 56.725 41.812C56.6535 41.9642 56.5624 42.1064 56.454 42.235C56.432 42.261 56.407 42.284 56.383 42.309C56.1134 42.5942 55.7743 42.8044 55.399 42.919L55.362 42.929C55.1615 42.9873 54.9538 43.0173 54.745 43.018H52.915C52.906 43.018 52.899 43.023 52.891 43.023H38.944C38.6788 43.023 38.4244 43.1284 38.2369 43.3159C38.0494 43.5034 37.944 43.7578 37.944 44.023C37.944 44.2882 38.0494 44.5426 38.2369 44.7301C38.4244 44.9176 38.6788 45.023 38.944 45.023H52.915C53.4138 45.0203 53.8952 45.2066 54.2622 45.5444C54.6292 45.8823 54.8546 46.3466 54.893 46.844C54.9039 46.9376 54.9082 47.0318 54.906 47.126C54.8997 47.2618 54.8762 47.3962 54.836 47.526C54.7692 47.7557 54.6592 47.9705 54.512 48.159C54.486 48.194 54.454 48.225 54.425 48.259C54.377 48.313 54.325 48.366 54.276 48.415C54.2279 48.4587 54.1775 48.4998 54.125 48.538C54.085 48.57 54.043 48.601 54 48.63C53.94 48.669 53.878 48.706 53.813 48.74C53.771 48.762 53.728 48.783 53.684 48.803C53.617 48.833 53.55 48.862 53.484 48.886C53.433 48.903 53.384 48.916 53.328 48.93C53.261 48.947 53.196 48.966 53.128 48.977C53.0464 48.9889 52.9643 48.9965 52.882 49C52.839 49 52.798 49.01 52.755 49.01H47.535H47.523H38.944C38.6788 49.01 38.4244 49.1154 38.2369 49.3029C38.0494 49.4904 37.944 49.7448 37.944 50.01C37.944 50.2752 38.0494 50.5296 38.2369 50.7171C38.4244 50.9046 38.6788 51.01 38.944 51.01H46.928C47.0674 51.0101 47.2065 51.0245 47.343 51.053L48.397 51.659C48.4704 51.7392 48.5373 51.8251 48.597 51.916C48.606 51.93 48.618 51.943 48.627 51.957C48.6814 52.0492 48.7285 52.1455 48.768 52.245C48.778 52.27 48.792 52.294 48.802 52.319C48.8285 52.4006 48.8499 52.4838 48.866 52.568C48.876 52.616 48.893 52.662 48.9 52.711C48.9 52.73 48.9 52.75 48.9 52.769C48.9134 52.8818 48.9177 52.9955 48.913 53.109C48.8953 53.3749 48.8223 53.6342 48.6987 53.8703C48.575 54.1063 48.4035 54.314 48.195 54.48C47.7926 54.8139 47.2868 54.9977 46.764 55H23.31C21.611 55 19.102 52.681 18.988 52.01ZM53.675 57.139C53.3625 57.5682 52.8996 57.8638 52.3788 57.9669C51.858 58.07 51.3174 57.9729 50.865 57.695L48.776 56.495L48.808 56.475C49.3939 56.1591 49.8932 55.7041 50.262 55.15C50.28 55.124 50.295 55.096 50.312 55.07C50.4325 54.8794 50.5363 54.6786 50.622 54.47C50.669 54.357 50.713 54.242 50.75 54.124C50.775 54.04 50.798 53.956 50.817 53.869C50.8624 53.6777 50.8922 53.4831 50.906 53.287C50.906 53.264 50.915 53.242 50.916 53.219C50.917 53.196 50.916 53.158 50.916 53.127L53.006 54.334L53.019 54.342C53.25 54.4752 53.4513 54.6541 53.6107 54.8679C53.7701 55.0816 53.8842 55.3256 53.946 55.585C54.0095 55.8488 54.0182 56.1228 53.9716 56.3901C53.925 56.6574 53.824 56.9123 53.675 57.139ZM61.855 54.948C61.5425 55.3772 61.0798 55.6729 60.5591 55.7763C60.0383 55.8797 59.4978 55.7832 59.045 55.506L54.017 52.606L54.007 52.6L51.268 51.018H52.752C52.794 51.018 52.833 51.007 52.874 51.006C53.0774 51.002 53.2803 50.9833 53.481 50.95C53.603 50.929 53.719 50.894 53.838 50.864C53.957 50.834 54.056 50.808 54.162 50.771C54.2982 50.7235 54.4317 50.6688 54.562 50.607C54.639 50.571 54.715 50.534 54.789 50.494C54.9231 50.4224 55.0533 50.3436 55.179 50.258C55.241 50.216 55.298 50.169 55.357 50.123C55.4809 50.0301 55.5991 49.93 55.711 49.823C55.768 49.769 55.816 49.708 55.869 49.65C55.9874 49.5241 56.0974 49.3905 56.198 49.25L61.189 52.135C61.4228 52.268 61.6266 52.4477 61.7878 52.6629C61.949 52.8781 62.0642 53.1243 62.126 53.386C62.1906 53.6512 62.1995 53.9268 62.1524 54.1957C62.1052 54.4645 62.003 54.7206 61.852 54.948H61.855ZM66.585 50.76C66.2727 51.1905 65.809 51.4868 65.2872 51.5894C64.7653 51.692 64.224 51.5932 63.772 51.313L62.186 50.406L56.891 47.346C56.891 47.308 56.902 47.27 56.904 47.231V47.225C56.9531 46.3539 56.7126 45.4911 56.22 44.771C56.9515 44.5077 57.5943 44.0441 58.075 43.433L62.441 45.946H62.447L65.901 47.946C66.1348 48.0791 66.3388 48.2586 66.5005 48.4736C66.6622 48.6886 66.7781 48.9345 66.841 49.196C66.9071 49.4604 66.9185 49.7355 66.8745 50.0044C66.8305 50.2734 66.732 50.5305 66.585 50.76Z" fill="#20A6FF"/>
<path d="M40.905 15C41.1702 15 41.4246 14.8946 41.6121 14.7071C41.7997 14.5196 41.905 14.2652 41.905 14V11C41.905 10.7348 41.7997 10.4804 41.6121 10.2929C41.4246 10.1054 41.1702 10 40.905 10C40.6398 10 40.3855 10.1054 40.1979 10.2929C40.0104 10.4804 39.905 10.7348 39.905 11V14C39.905 14.2652 40.0104 14.5196 40.1979 14.7071C40.3855 14.8946 40.6398 15 40.905 15Z" fill="#C4D600"/>
<path d="M46.905 15.868C47.1347 16.0006 47.4076 16.0365 47.6638 15.9679C47.92 15.8993 48.1384 15.7317 48.271 15.502L49.771 12.902C49.9015 12.6724 49.9359 12.4006 49.8668 12.1457C49.7976 11.8909 49.6304 11.6738 49.4017 11.5417C49.173 11.4097 48.9014 11.3735 48.6461 11.441C48.3908 11.5085 48.1726 11.6742 48.039 11.902L46.539 14.502C46.4064 14.7317 46.3705 15.0046 46.4391 15.2608C46.5077 15.517 46.6753 15.7354 46.905 15.868Z" fill="#C4D600"/>
<path d="M52.3081 19.5C52.4836 19.5 52.656 19.4538 52.8081 19.366L55.4081 17.866C55.5227 17.8008 55.6233 17.7136 55.7041 17.6094C55.7849 17.5051 55.8443 17.386 55.8789 17.2587C55.9134 17.1314 55.9225 16.9986 55.9055 16.8678C55.8885 16.737 55.8458 16.6109 55.7798 16.4967C55.7139 16.3825 55.626 16.2824 55.5212 16.2023C55.4165 16.1222 55.2969 16.0636 55.1694 16.0299C55.0419 15.9962 54.909 15.988 54.7783 16.0059C54.6477 16.0238 54.5218 16.0673 54.4081 16.134L51.8081 17.634C51.6174 17.7441 51.4685 17.914 51.3842 18.1173C51.3 18.3207 51.2852 18.5462 51.3422 18.7588C51.3992 18.9714 51.5247 19.1593 51.6993 19.2933C51.874 19.4273 52.0879 19.5 52.3081 19.5Z" fill="#C4D600"/>
<path d="M33.5389 15.5C33.6041 15.6146 33.6913 15.7153 33.7955 15.7961C33.8997 15.8769 34.0189 15.9362 34.1462 15.9708C34.2735 16.0054 34.4063 16.0144 34.5371 15.9974C34.6679 15.9804 34.794 15.9377 34.9082 15.8718C35.0224 15.8058 35.1225 15.7179 35.2026 15.6132C35.2827 15.5084 35.3413 15.3888 35.375 15.2613C35.4087 15.1338 35.4169 15.0009 35.399 14.8703C35.3811 14.7396 35.3376 14.6138 35.2709 14.5L33.7709 11.9C33.6373 11.6722 33.4191 11.5064 33.1638 11.439C32.9085 11.3715 32.6369 11.4077 32.4082 11.5397C32.1795 11.6718 32.0123 11.8889 31.9431 12.1437C31.874 12.3986 31.9084 12.6704 32.0389 12.9L33.5389 15.5Z" fill="#C4D600"/>
<path d="M26.4049 17.868L29.0049 19.368C29.1187 19.4347 29.2445 19.4782 29.3752 19.4961C29.5058 19.514 29.6387 19.5058 29.7662 19.4721C29.8937 19.4384 30.0133 19.3798 30.1181 19.2997C30.2228 19.2196 30.3107 19.1195 30.3767 19.0053C30.4426 18.8911 30.4853 18.765 30.5023 18.6342C30.5193 18.5034 30.5103 18.3706 30.4757 18.2433C30.4412 18.116 30.3818 17.9968 30.301 17.8926C30.2202 17.7884 30.1195 17.7012 30.0049 17.636L27.4049 16.136C27.1753 16.0055 26.9035 15.9711 26.6486 16.0402C26.3938 16.1094 26.1767 16.2766 26.0446 16.5053C25.9126 16.734 25.8764 17.0056 25.9439 17.2609C26.0114 17.5162 26.1771 17.7344 26.4049 17.868Z" fill="#C4D600"/>
<path d="M41 71C53.7033 71 64 70.1304 64 69C64 67.8696 53.7164 67 41 67C28.2836 67 18 67.8696 18 69C18 70.1304 28.2967 71 41 71Z" fill="#F7F7F7"/>
</svg>
