<svg width="74" height="74" viewBox="0 0 74 74" fill="none" xmlns="http://www.w3.org/2000/svg">
<rect width="74" height="74" fill="white"/>
<path d="M36.9998 63.3736C49.6982 63.3736 60.0138 62.2932 60.0138 60.976C60.0138 59.6588 49.6538 58.5784 36.9998 58.5784C24.3458 58.5784 13.9858 59.644 13.9858 60.976C13.9858 62.308 24.2866 63.3736 36.9998 63.3736Z" fill="#F5F5F5"/>
<path d="M20.72 55.426L47.8928 16.28H62.974C63.6334 16.28 64.2658 16.542 64.7321 17.0082C65.1984 17.4745 65.4604 18.107 65.4604 18.7664V18.7664V55.426H20.72Z" fill="#EEF0FD"/>
<path d="M9.25 20.8458V54.575H64.75V20.8458C64.7309 19.7262 64.2792 18.6591 63.4925 17.8743C62.7057 17.0895 61.6467 16.6498 60.5437 16.65H13.4417C12.3412 16.6537 11.2859 17.0951 10.5023 17.8795C9.71868 18.6639 9.2691 19.7288 9.25 20.8458Z" stroke="#20A6FF" stroke-width="2.5" stroke-miterlimit="10"/>
<path d="M71.04 54.76H2.95996" stroke="#20A6FF" stroke-width="2.5" stroke-linecap="round" stroke-linejoin="round"/>
<path d="M41.3964 42.3361L41.74 42.6803C41.951 42.8913 42.0568 43.1688 42.0568 43.4458C42.0568 43.7227 41.951 44.0003 41.74 44.2119C41.3163 44.6349 40.631 44.6349 40.2079 44.2119L39.3971 43.4011M41.3964 42.3361C41.8195 42.7598 42.5049 42.7598 42.9279 42.336C43.1394 42.1245 43.2452 41.8475 43.2452 41.5706C43.2452 41.2936 43.1394 41.0161 42.9279 40.8051M41.3964 42.3361L36.6393 37.579M39.3971 43.4011C39.6026 43.6108 39.7047 43.8841 39.7047 44.1568C39.7047 44.4344 39.5989 44.7113 39.3874 44.9229C38.9649 45.3453 38.2789 45.3453 37.8564 44.9229L36.8122 43.8792M39.3971 43.4011L35.433 39.437M36.8122 43.8792C37.2352 44.3017 37.2352 44.9871 36.8122 45.4101C36.6012 45.6223 36.3237 45.7281 36.0467 45.7281C35.8126 45.7281 35.5784 45.6529 35.3846 45.5018H35.384C35.8058 44.9446 35.0095 43.0866 33.4538 44.1708C34.2796 43.3521 33.616 41.7595 32.1149 42.2443L32.0623 42.1918L32.0244 42.1539L31.9369 42.1526C32.4879 41.5604 31.9369 39.9865 30.3846 40.5147L29.8564 39.9865C28.8867 39.0168 28.238 37.7793 27.9879 36.4404C27.9195 36.0699 27.7373 35.73 27.4707 35.4634L26.3384 34.3311L31.5853 29.0841L33.0557 30.5545C33.5785 31.0773 34.3556 31.2319 35.0507 30.9788C35.3405 30.8737 35.6456 30.8211 35.9501 30.8211C36.2203 30.8211 36.4912 30.8626 36.7516 30.9458M36.8122 43.8792L33.616 40.683" stroke="#20A6FF" stroke-linecap="round" stroke-linejoin="round"/>
<path d="M37.5728 35.4493L42.7861 40.6627L43.4623 39.9865C44.4424 39.0058 45.0954 37.7518 45.3387 36.3958C45.4005 36.054 45.5705 35.7416 45.8163 35.4958L47.4591 33.853L47.5086 33.8035L43.1072 29.402L42.1442 30.3644C41.5884 30.9201 40.7472 31.0638 40.0312 30.7385C39.5727 30.5307 39.0787 30.4267 38.5853 30.4267C37.9488 30.4267 37.3118 30.5997 36.7517 30.9458C36.5243 31.0858 36.3097 31.2545 36.1128 31.4508L33.0932 34.4711C32.5539 35.0097 32.5539 35.884 33.0932 36.4232C33.3628 36.6929 33.7162 36.8274 34.0689 36.8274C34.4223 36.8274 34.7757 36.6929 35.0453 36.4232L36.7957 34.6728M37.5728 35.4493C37.5642 35.4408 37.5563 35.4329 37.549 35.4261C37.5447 35.4224 37.5416 35.4188 37.5379 35.4151C37.5312 35.4084 37.5251 35.4029 37.5202 35.3979C37.511 35.3882 37.5062 35.3839 37.5062 35.3839L36.7957 34.6728M37.5728 35.4493C39.1987 37.037 40.4786 36.7601 40.9154 36.4232M36.7957 34.6728L37.6651 33.8035" stroke="#20A6FF" stroke-linecap="round" stroke-linejoin="round"/>
<path d="M50.7961 31.6453L48.0124 34.4296L47.4475 33.8646L43.0461 29.4633L42.4438 28.8611L45.2281 26.0774L50.7961 31.6453Z" stroke="#20A6FF" stroke-linecap="round" stroke-linejoin="round"/>
<path d="M31.6466 29.1453L26.3996 34.3922L25.9093 34.8826L23.125 32.0983L29.3233 25.9L32.1076 28.6843L31.6466 29.1453Z" stroke="#20A6FF" stroke-linecap="round" stroke-linejoin="round"/>
<path d="M48.3736 32.4391C48.7538 32.4391 49.0619 32.131 49.0619 31.7508C49.0619 31.3707 48.7538 31.0625 48.3736 31.0625C47.9935 31.0625 47.6853 31.3707 47.6853 31.7508C47.6853 32.131 47.9935 32.4391 48.3736 32.4391Z" fill="#C4D600"/>
<path d="M26.003 33.1274C26.3832 33.1274 26.6913 32.8192 26.6913 32.4391C26.6913 32.0589 26.3832 31.7507 26.003 31.7507C25.6229 31.7507 25.3147 32.0589 25.3147 32.4391C25.3147 32.8192 25.6229 33.1274 26.003 33.1274Z" fill="#C4D600"/>
<path d="M31.7243 40.7556C32.1021 41.1334 32.173 41.7026 31.937 42.1526C31.8826 42.2565 31.8117 42.3538 31.7243 42.4412C31.259 42.9065 30.5045 42.9065 30.0387 42.4412C29.5734 41.9753 29.5734 41.2209 30.0387 40.7556C30.142 40.6523 30.2594 40.5722 30.3847 40.5147C30.8249 40.313 31.3623 40.3937 31.7243 40.7556Z" fill="white" stroke="#20A6FF" stroke-linecap="round" stroke-linejoin="round"/>
<path d="M33.4538 42.4852C33.9197 42.9511 33.9197 43.7056 33.4538 44.1709C32.9886 44.6361 32.2341 44.6361 31.7688 44.1709C31.303 43.7056 31.303 42.9511 31.7688 42.4852C31.8722 42.3819 31.9896 42.3018 32.1149 42.2444C32.5551 42.0426 33.0919 42.1233 33.4538 42.4852Z" fill="white" stroke="#20A6FF" stroke-linecap="round" stroke-linejoin="round"/>
<path d="M35.1395 44.1709C35.499 44.5305 35.581 45.0636 35.3841 45.502C35.3266 45.6304 35.2453 45.7514 35.1395 45.8566C34.6743 46.3218 33.9198 46.3218 33.4539 45.8566C32.9887 45.3913 32.9887 44.6362 33.4539 44.1709C33.9198 43.7057 34.6743 43.7057 35.1395 44.1709Z" fill="white" stroke="#20A6FF" stroke-linecap="round" stroke-linejoin="round"/>
</svg>
